<?xml version="1.0" encoding="UTF-8" standalone="no"?>
<!DOCTYPE svg PUBLIC "-//W3C//DTD SVG 1.1//EN" "http://www.w3.org/Graphics/SVG/1.1/DTD/svg11.dtd">
<svg width="100%" height="100%" viewBox="0 0 256 256" version="1.1" xmlns="http://www.w3.org/2000/svg" xmlns:xlink="http://www.w3.org/1999/xlink" xml:space="preserve" xmlns:serif="http://www.serif.com/" style="fill-rule:evenodd;clip-rule:evenodd;stroke-linejoin:round;stroke-miterlimit:2;">
    <rect x="0" y="0" width="256" height="256"/>
    <g>
        <g transform="matrix(0.570806,0,0,0.570806,-252.313,-610.669)">
            <rect x="613.64" y="1136.18" width="105.265" height="105.265" style="fill:url(#_Linear1);"/>
            <path d="M718.904,1136.18L613.64,1136.18L613.64,1241.45L718.904,1241.45L718.904,1136.18ZM617.806,1140.35L617.806,1237.28L714.738,1237.28L714.738,1140.35L617.806,1140.35Z" style="fill:rgb(255,0,0);"/>
        </g>
        <g transform="matrix(0.570806,0,0,0.570806,-252.313,-490.497)">
            <rect x="613.64" y="1136.18" width="105.265" height="105.265" style="fill:url(#_Linear2);"/>
            <path d="M718.904,1136.18L613.64,1136.18L613.64,1241.45L718.904,1241.45L718.904,1136.18ZM617.806,1140.35L617.806,1237.28L714.738,1237.28L714.738,1140.35L617.806,1140.35Z" style="fill:rgb(0,0,255);"/>
        </g>
        <g transform="matrix(0.570806,0,0,0.570806,-252.313,-550.583)">
            <rect x="613.64" y="1136.18" width="105.265" height="105.265" style="fill:url(#_Linear3);"/>
            <path d="M718.904,1136.18L613.64,1136.18L613.64,1241.45L718.904,1241.45L718.904,1136.18ZM617.806,1140.35L617.806,1237.28L714.738,1237.28L714.738,1140.35L617.806,1140.35Z" style="fill:rgb(255,255,0);"/>
        </g>
    </g>
    <defs>
        <linearGradient id="_Linear1" x1="0" y1="0" x2="1" y2="0" gradientUnits="userSpaceOnUse" gradientTransform="matrix(105.265,105.265,-105.265,105.265,613.64,1136.18)"><stop offset="0" style="stop-color:rgb(255,0,0);stop-opacity:1"/><stop offset="1" style="stop-color:rgb(160,0,0);stop-opacity:1"/></linearGradient>
        <linearGradient id="_Linear2" x1="0" y1="0" x2="1" y2="0" gradientUnits="userSpaceOnUse" gradientTransform="matrix(105.265,105.265,-105.265,105.265,613.64,1136.18)"><stop offset="0" style="stop-color:rgb(0,0,255);stop-opacity:1"/><stop offset="1" style="stop-color:rgb(0,0,160);stop-opacity:1"/></linearGradient>
        <linearGradient id="_Linear3" x1="0" y1="0" x2="1" y2="0" gradientUnits="userSpaceOnUse" gradientTransform="matrix(105.265,105.265,-105.265,105.265,613.64,1136.18)"><stop offset="0" style="stop-color:rgb(255,255,0);stop-opacity:1"/><stop offset="1" style="stop-color:rgb(160,160,0);stop-opacity:1"/></linearGradient>
    </defs>
</svg>